<svg xmlns="http://www.w3.org/2000/svg" version="1.1" xmlns:xlink="http://www.w3.org/1999/xlink" xmlns:svgjs="http://svgjs.dev/svgjs" width="1000" height="222" viewBox="0 0 1000 222"><g transform="matrix(1,0,0,1,-0.6060606060606233,-0.10651256223731309)"><svg viewBox="0 0 396 88" data-background-color="#ffffff" preserveAspectRatio="xMidYMid meet" height="222" width="1000" xmlns="http://www.w3.org/2000/svg" xmlns:xlink="http://www.w3.org/1999/xlink"><g id="tight-bounds" transform="matrix(1,0,0,1,0.2400000000000091,0.042221195841818826)"><svg viewBox="0 0 395.52 87.91555760831633" height="87.91555760831633" width="395.52"><g><svg viewBox="0 0 584.3437879922598 129.88700939597314" height="87.91555760831633" width="395.52"><g><rect width="5.378687264556242" height="129.88700939597314" x="169.36476757441497" y="0" fill="#010c80" opacity="1" stroke-width="0" stroke="transparent" fill-opacity="1" class="rect-o-0" data-fill-palette-color="primary" rx="1%" id="o-0" data-palette-color="#010c80"></rect></g><g transform="matrix(1,0,0,1,188.8237879922598,0.32310201342281175)"><svg viewBox="0 0 395.52 129.24080536912751" height="129.24080536912751" width="395.52"><g id="textblocktransform"><svg viewBox="0 0 395.52 129.24080536912751" height="129.24080536912751" width="395.52" id="textblock"><g><svg viewBox="0 0 395.52 129.24080536912751" height="129.24080536912751" width="395.52"><g transform="matrix(1,0,0,1,0,0)"><svg width="395.52" viewBox="2.2500011920928955 -35.45000076293945 238.40000915527344 74.90000915527344" height="129.24080536912751" data-palette-color="#010c80"><svg></svg><svg></svg><g class="undefined-text-0" data-fill-palette-color="primary" id="text-0"><path xmlns="http://www.w3.org/2000/svg" d="M3.55-35h17.65c0.567 0 0.85 1.473 0.85 4.42 0 2.953-0.283 4.43-0.85 4.43v0h-9.15v5.7h6.1c0.567 0 0.85 1.293 0.85 3.88 0 2.58-0.267 3.87-0.8 3.87v0h-6.15v12.05c0 0.467-0.623 0.777-1.87 0.93-1.253 0.147-2.297 0.22-3.13 0.22v0l-2.35-0.1c-1.633-0.2-2.45-0.533-2.45-1v0-33.1c0-0.533 0.11-0.883 0.33-1.05 0.213-0.167 0.537-0.25 0.97-0.25zM42.45-11.4v-22.6c0-0.667 1.81-1 5.43-1 3.613 0 5.42 0.333 5.42 1v0 22.95c0 3.4-1.217 6.173-3.65 8.32-2.433 2.153-5.79 3.23-10.07 3.23-4.287 0-7.77-1.11-10.45-3.33-2.687-2.213-4.03-5.203-4.03-8.97v0-22.15c0-0.667 1.81-1 5.43-1 3.613 0 5.42 0.333 5.42 1v0 22.55c0 0.667 0.35 1.2 1.05 1.6v0c0.733 0.4 1.5 0.6 2.3 0.6 0.8 0 1.527-0.183 2.18-0.55 0.647-0.367 0.97-0.917 0.97-1.65zM57-2.95v0-31.1c0-0.7 1.693-1.05 5.08-1.05 3.38 0 5.07 0.35 5.07 1.05v0 24.5h7.7c0.6 0 1.017 0.783 1.25 2.35v0c0.1 0.767 0.15 1.55 0.15 2.35 0 0.8-0.05 1.617-0.15 2.45v0c-0.267 1.6-0.7 2.4-1.3 2.4v0h-15.4c-0.733 0-1.317-0.3-1.75-0.9-0.433-0.6-0.65-1.283-0.65-2.05zM78.75-2.95v0-31.1c0-0.7 1.693-1.05 5.08-1.05 3.38 0 5.07 0.35 5.07 1.05v0 24.5h7.7c0.6 0 1.017 0.783 1.25 2.35v0c0.1 0.767 0.15 1.55 0.15 2.35 0 0.8-0.05 1.617-0.15 2.45v0c-0.267 1.6-0.7 2.4-1.3 2.4v0h-15.4c-0.733 0-1.317-0.3-1.75-0.9-0.433-0.6-0.65-1.283-0.65-2.05zM102.3-12.2v0c0.633 0.5 1.727 1.183 3.28 2.05 1.547 0.867 3.03 1.3 4.45 1.3 1.413 0 2.12-0.55 2.12-1.65v0c0-0.5-0.2-0.943-0.6-1.33-0.4-0.38-1.133-0.82-2.2-1.32-1.067-0.5-1.867-0.893-2.4-1.18-0.533-0.28-1.24-0.747-2.12-1.4-0.887-0.647-1.563-1.32-2.03-2.02v0c-1.333-1.9-2-4.317-2-7.25 0-2.933 1.093-5.41 3.28-7.43 2.18-2.013 5.037-3.02 8.57-3.02v0c2.4 0 4.617 0.257 6.65 0.77 2.033 0.52 3.083 1.197 3.15 2.03v0c0 0.1 0 0.2 0 0.3v0c0 1.167-0.367 2.64-1.1 4.42-0.733 1.787-1.25 2.78-1.55 2.98v0c-2.133-1.1-4.04-1.65-5.72-1.65-1.687 0-2.53 0.6-2.53 1.8v0c0 0.733 0.617 1.383 1.85 1.95v0c0.267 0.133 0.65 0.317 1.15 0.55 0.5 0.233 1.077 0.507 1.73 0.82 0.647 0.32 1.347 0.72 2.1 1.2 0.747 0.487 1.553 1.13 2.42 1.93v0c1.767 1.667 2.65 3.867 2.65 6.6v0c0 3.567-0.983 6.483-2.95 8.75-1.967 2.267-5 3.433-9.1 3.5v0c-2 0-3.81-0.167-5.43-0.5-1.613-0.333-3.02-0.983-4.22-1.95-1.2-0.967-1.8-2.133-1.8-3.5 0-1.367 0.25-2.727 0.75-4.08 0.5-1.347 1.033-2.237 1.6-2.67zM142.6-25.9v25.1c0 0.667-1.65 1-4.95 1-3.3 0-4.95-0.333-4.95-1v0-25.1h-6c-0.567 0-0.967-0.767-1.2-2.3v0c-0.1-0.733-0.15-1.483-0.15-2.25 0-0.767 0.05-1.517 0.15-2.25v0c0.233-1.533 0.633-2.3 1.2-2.3v0h21.75c0.567 0 0.967 0.767 1.2 2.3v0c0.1 0.733 0.15 1.483 0.15 2.25 0 0.767-0.05 1.517-0.15 2.25v0c-0.233 1.533-0.633 2.3-1.2 2.3v0zM174.9 0.1v0c-2.9 0-4.467-0.467-4.7-1.4v0l-1.65-6.45h-7.95l-1.45 6.2c-0.2 1.033-1.8 1.55-4.8 1.55v0c-1.6 0-2.783-0.093-3.55-0.28-0.767-0.18-1.15-0.32-1.15-0.42v0l8.85-33.85c0-0.267 2.283-0.4 6.85-0.4 4.567 0 6.85 0.133 6.85 0.4v0l8.65 33.9c0 0.233-0.767 0.417-2.3 0.55-1.533 0.133-2.75 0.2-3.65 0.2zM164.55-24.45l-2.7 10.35h5.25l-2.25-10.35zM198.45-35.45c2.433 0 4.577 0.34 6.43 1.02 1.847 0.687 2.77 1.613 2.77 2.78 0 1.167-0.44 2.607-1.32 4.32-0.887 1.72-1.63 2.58-2.23 2.58v0c-0.167 0-0.357-0.093-0.57-0.28-0.22-0.18-0.72-0.38-1.5-0.6-0.787-0.213-1.463-0.32-2.03-0.32v0c-1.933 0-3.49 0.683-4.67 2.05-1.187 1.367-1.78 3.457-1.78 6.27 0 2.82 0.61 4.913 1.83 6.28 1.213 1.367 2.753 2.05 4.62 2.05v0c0.767 0 1.627-0.11 2.58-0.33 0.947-0.213 1.62-0.52 2.02-0.92v0c0.067-0.067 0.2-0.1 0.4-0.1 0.2 0 0.577 0.373 1.13 1.12 0.547 0.753 1.053 1.737 1.52 2.95 0.467 1.22 0.7 2.163 0.7 2.83v0c0 1.3-1 2.333-3 3.1-2 0.767-4.367 1.15-7.1 1.15v0c-4.4 0-8.017-1.55-10.85-4.65-2.833-3.1-4.25-7.477-4.25-13.13 0-5.647 1.46-10.087 4.38-13.32 2.913-3.233 6.553-4.85 10.92-4.85zM222.2-12.75v12.05c0 0.5-1.567 0.75-4.7 0.75v0l-2.8-0.15c-1.667-0.133-2.5-0.367-2.5-0.7v0-33.55c0-0.567 1.667-0.85 5-0.85 3.333 0 5 0.283 5 0.85v0 12.8l6.1-12.8c0.233-0.467 1.567-0.7 4-0.7v0c4.433 0 6.767 0.383 7 1.15v0c0 0.067-0.017 0.133-0.05 0.2v0l-8.7 15.7 10.1 13.95c0 0.067-0.317 0.35-0.95 0.85v0c-1.533 1.333-3.333 2.383-5.4 3.15v0c-0.633 0.233-1.267 0.35-1.9 0.35v0l-1.2-0.1c-1.067-0.267-1.9-0.95-2.5-2.05v0l-5.7-10.9z" fill="#010c80" fill-rule="nonzero" stroke="none" stroke-width="1" stroke-linecap="butt" stroke-linejoin="miter" stroke-miterlimit="10" stroke-dasharray="" stroke-dashoffset="0" font-family="none" font-weight="none" font-size="none" text-anchor="none" style="mix-blend-mode: normal" data-fill-palette-color="primary" opacity="1"></path><path xmlns="http://www.w3.org/2000/svg" d="M2.5 36.65v0-30c0-0.833 0.21-1.49 0.63-1.97 0.413-0.487 0.953-0.73 1.62-0.73v0h8.35c5.3 0 9.327 1.333 12.08 4 2.747 2.667 4.12 6.867 4.12 12.6v0c0 12.267-5.233 18.4-15.7 18.4v0h-8.55c-1.7 0-2.55-0.767-2.55-2.3zM12.6 13.45h-0.5v14.95c0 0.7 0.05 1.143 0.15 1.33 0.1 0.18 0.4 0.27 0.9 0.27v0c1.833 0 3.223-0.683 4.17-2.05 0.953-1.367 1.43-3.64 1.43-6.82 0-3.187-0.49-5.263-1.47-6.23-0.987-0.967-2.547-1.45-4.68-1.45zM43.1 17.85h6.45c0.633 0 0.95 1.167 0.95 3.5v0c0 0.7-0.073 1.523-0.22 2.47-0.153 0.953-0.43 1.43-0.83 1.43v0h-6.35v5h9.2c0.567 0 0.95 0.733 1.15 2.2v0c0.1 0.633 0.15 1.307 0.15 2.02 0 0.72-0.1 1.647-0.3 2.78-0.2 1.133-0.533 1.7-1 1.7v0h-17.1c-1.267 0-1.9-0.517-1.9-1.55v0-32.15c0-0.867 0.383-1.3 1.15-1.3v0h17.9c0.7 0 1.05 1.473 1.05 4.42 0 2.953-0.35 4.43-1.05 4.43v0h-9.25zM64.75 37.9l-8.75-33.3c0-0.167 0.727-0.327 2.18-0.48 1.447-0.147 2.637-0.22 3.57-0.22v0c3.7 0 5.633 0.483 5.8 1.45v0l4.3 22 4.05-22c0.2-0.967 2.267-1.45 6.2-1.45v0c0.967 0 2.183 0.067 3.65 0.2 1.467 0.133 2.2 0.283 2.2 0.45v0l-8.85 33.1c-0.133 0.533-1.117 0.883-2.95 1.05v0c-2.833 0.3-5.407 0.357-7.72 0.17-2.32-0.18-3.547-0.503-3.68-0.97zM100.8 17.85h6.45c0.633 0 0.95 1.167 0.95 3.5v0c0 0.7-0.077 1.523-0.23 2.47-0.147 0.953-0.42 1.43-0.82 1.43v0h-6.35v5h9.2c0.567 0 0.95 0.733 1.15 2.2v0c0.1 0.633 0.15 1.307 0.15 2.02 0 0.72-0.1 1.647-0.3 2.78-0.2 1.133-0.533 1.7-1 1.7v0h-17.1c-1.267 0-1.9-0.517-1.9-1.55v0-32.15c0-0.867 0.383-1.3 1.15-1.3v0h17.9c0.7 0 1.05 1.473 1.05 4.42 0 2.953-0.35 4.43-1.05 4.43v0h-9.25zM115.15 36v0-31.1c0-0.7 1.693-1.05 5.08-1.05 3.38 0 5.07 0.35 5.07 1.05v0 24.5h7.7c0.6 0 1.017 0.783 1.25 2.35v0c0.1 0.767 0.15 1.55 0.15 2.35 0 0.8-0.05 1.617-0.15 2.45v0c-0.267 1.6-0.7 2.4-1.3 2.4v0h-15.4c-0.733 0-1.317-0.3-1.75-0.9-0.433-0.6-0.65-1.283-0.65-2.05zM152.28 39.45c-4.687 0-8.503-1.533-11.45-4.6-2.953-3.067-4.43-7.543-4.43-13.43 0-5.88 1.493-10.337 4.48-13.37 2.98-3.033 6.83-4.55 11.55-4.55 4.713 0 8.52 1.49 11.42 4.47 2.9 2.987 4.35 7.503 4.35 13.55 0 6.053-1.483 10.553-4.45 13.5-2.967 2.953-6.79 4.43-11.47 4.43zM152.3 13.1c-1.6 0-2.94 0.733-4.02 2.2-1.087 1.467-1.63 3.523-1.63 6.17 0 2.653 0.517 4.687 1.55 6.1 1.033 1.42 2.393 2.13 4.08 2.13 1.68 0 3.047-0.717 4.1-2.15 1.047-1.433 1.57-3.483 1.57-6.15 0-2.667-0.54-4.717-1.62-6.15-1.087-1.433-2.43-2.15-4.03-2.15zM176.55 39.05v0c-3.033 0-4.55-0.333-4.55-1v0-32.4c0-1.133 0.517-1.7 1.55-1.7v0h8.8c4.933 0 8.493 1.017 10.68 3.05 2.18 2.033 3.27 4.983 3.27 8.85v0c0 3.2-1.033 6.133-3.1 8.8v0c-1.033 1.333-2.55 2.4-4.55 3.2-2 0.8-4.333 1.2-7 1.2v0 8.95c0 0.4-0.623 0.673-1.87 0.82-1.253 0.153-2.33 0.23-3.23 0.23zM182.7 12.65h-1.05v7.9h0.65c1.167 0 2.15-0.367 2.95-1.1 0.8-0.733 1.2-1.767 1.2-3.1 0-1.333-0.273-2.283-0.82-2.85-0.553-0.567-1.53-0.85-2.93-0.85z" fill="#010c80" fill-rule="nonzero" stroke="none" stroke-width="1" stroke-linecap="butt" stroke-linejoin="miter" stroke-miterlimit="10" stroke-dasharray="" stroke-dashoffset="0" font-family="none" font-weight="none" font-size="none" text-anchor="none" style="mix-blend-mode: normal" data-fill-palette-color="primary" opacity="1"></path></g></svg></g></svg></g></svg></g></svg></g><g transform="matrix(1,0,0,1,0,0.32310201342281175)"><svg viewBox="0 0 155.28443442112638 129.24080536912751" height="129.24080536912751" width="155.28443442112638"><g><svg xmlns="http://www.w3.org/2000/svg" xmlns:xlink="http://www.w3.org/1999/xlink" version="1.1" x="0" y="0" viewBox="10 16.708250045776367 80 66.58274841308594" enable-background="new 0 0 100 100" xml:space="preserve" height="129.24080536912751" width="155.28443442112638" class="icon-icon-0" data-fill-palette-color="accent" id="icon-0"><path d="M90 49.958c0-1.333-0.667-2.334-1.999-3l-8.065-3.667 8.065-3.667C89.333 38.959 90 37.958 90 36.625s-0.667-2.334-1.999-3L51.333 16.958c-0.666-0.333-1.667-0.333-2.666 0L12 33.625c-1.333 0.666-2 1.667-2 3s0.667 2.334 2 3l8.066 3.667L12 46.958c-1.333 0.666-2 1.667-2 3 0 1.333 0.667 2.333 2 3l8.063 3.666L12 60.29c-1.333 0.667-2 1.667-2 3.001 0 1.335 0.667 2.334 2 3.002l36.667 16.666c0.333 0.332 1 0.332 1.333 0.332s0.999 0 1.333-0.332l36.668-16.666C89.333 65.625 90 64.626 90 63.291c0-1.334-0.667-2.334-1.999-3.001l-8.062-3.665 8.062-3.666C89.333 52.292 90 51.291 90 49.958zM50 23.625l28.665 13L50 49.625l-28.667-13L50 23.625zM48.667 56.293c0.333 0.332 1 0.332 1.333 0.332s0.999 0 1.333-0.332L71.995 46.9l6.67 3.058L50 62.959l-28.667-13 6.671-3.058L48.667 56.293zM78.665 63.291L50 76.293 21.333 63.291l6.671-3.057 20.663 9.392c0.333 0.332 1 0.332 1.333 0.332s0.999 0 1.333-0.332l20.662-9.392L78.665 63.291z" fill="#0023ff" data-fill-palette-color="accent"></path></svg></g></svg></g></svg></g><defs></defs></svg><rect width="395.52" height="87.91555760831633" fill="none" stroke="none" visibility="hidden"></rect></g></svg></g></svg>